# xmcd
#
# Track frame offsets:
#	150
#	17485
#	50575
#	69597
#	85475
#	104360
#	129607
#	146965
#	159507
#	176750
#	197297
#
# Disc length: 2985 seconds
#
# Revision: 2
# Processed by: cddbd v1.4PL0 Copyright (c) Steve Scherf et al.
# Submitted via: MusicWizard 6.0.2
#
DISCID=990ba70b
DTITLE=Checkerboard Blues Band - ... With A Feeling!
DYEAR=1991
DGENRE=Blues
TTITLE0=T.Bone Shuffle
TTITLE1=If Blues Can Change The World
TTITLE2=Pride And Joy
TTITLE3=Funny Woman Blues
TTITLE4=Rainy Night In Georgia
TTITLE5=Woke Up This Morning
TTITLE6=Let The Telephone Ring
TTITLE7=Further On Up The Road
TTITLE8=Where Can A Man Go From Here
TTITLE9=Mannish Boy - I'm A Man
TTITLE10=Rainy Night In Georgia (1st Take)
EXTD=
EXTT0=
EXTT1=
EXTT2=
EXTT3=
EXTT4=
EXTT5=
EXTT6=
EXTT7=
EXTT8=
EXTT9=
EXTT10=
PLAYORDER=
